<?xml version="1.0" encoding="UTF-8" standalone="no"?>
<svg width="27px" height="20px" viewBox="0 0 27 20" version="1.1" xmlns="http://www.w3.org/2000/svg" xmlns:xlink="http://www.w3.org/1999/xlink">
    <!-- Generator: Sketch 42 (36781) - http://www.bohemiancoding.com/sketch -->
    <title>c53_book</title>
    <desc>Created with Sketch.</desc>
    <defs></defs>
    <g id="Page-1" stroke="none" stroke-width="1" fill="none" fill-rule="evenodd">
        <g id="c53_book" fill-rule="nonzero" fill="#ffffff">
            <path d="M26.8677551,4.13066667 C26.8319388,4.07466667 26.245102,3.08533333 25.0686735,2.06933333 C23.9032653,1.05866667 22.0904082,0.008 19.7072449,0.008 C17.3213265,0.008 15.5277551,1.06133333 14.3816327,2.07733333 C14.0289796,2.392 13.7314286,2.70133333 13.4862245,2.984 C13.2355102,2.69866667 12.9241837,2.38666667 12.5632653,2.06933333 C11.3923469,1.05866667 9.5822449,0.008 7.19632653,0.008 C4.81040816,0.008 3.01959184,1.06133333 1.87071429,2.07733333 C0.719081633,3.096 0.157040816,4.088 0.123979592,4.14666667 L0,4.60266667 L0,19.5173333 L1.84591837,19.9733333 L1.84867347,19.976 C1.87346939,19.9253333 2.37489796,19.096 3.28132653,18.3253333 C4.19877551,17.5466667 5.47714286,16.8293333 7.19081633,16.824 C8.95683673,16.824 10.3013265,17.5946667 11.2463265,18.408 C11.7119388,18.8106667 12.0783673,19.2186667 12.3097959,19.52 C12.4310204,19.672 12.5136735,19.7973333 12.5715306,19.8773333 C12.5963265,19.92 12.6183673,19.952 12.6293878,19.9733333 C12.634898,19.9813333 12.6404082,19.9893333 12.6404082,19.992 L12.6404082,19.992 L12.6404082,19.992 L12.6459184,19.992 L14.3595918,19.976 L14.3595918,19.976 L14.3623469,19.9733333 L14.3623469,19.9706667 C14.4009184,19.9013333 14.8995918,19.088 15.7922449,18.3253333 C16.7152041,17.5466667 17.9935714,16.8293333 19.7044898,16.824 C21.4705102,16.824 22.8122449,17.5946667 23.76,18.408 C24.2283673,18.8106667 24.5837755,19.2186667 24.8207143,19.52 C24.9419388,19.672 25.0273469,19.7973333 25.0852041,19.8773333 C25.1127551,19.92 25.1320408,19.952 25.1430612,19.9733333 C25.1513265,19.9813333 25.1540816,19.9893333 25.1540816,19.992 L25.1568367,19.992 L25.1568367,19.992 L26.9972449,19.5173333 L26.9972449,4.60266667 L26.8677551,4.13066667 Z M7.19357143,14.92 L7.19357143,14.92 C4.87377551,14.92 3.11877551,15.9146667 1.97265306,16.9013333 L1.97265306,4.872 C2.17653061,4.57333333 2.61734694,3.98133333 3.28408163,3.41066667 C4.20153061,2.632 5.47989796,1.91466667 7.19357143,1.91466667 C8.95959184,1.91466667 10.3040816,2.68533333 11.2490816,3.496 C11.7146939,3.89866667 12.0811224,4.30933333 12.312551,4.61333333 C12.3952041,4.71733333 12.4640816,4.81066667 12.5109184,4.88266667 L12.5109184,16.9493333 C11.3482653,15.9493333 9.55193878,14.92 7.19357143,14.92 Z M25.0273469,16.9466667 C23.8564286,15.9466667 22.0628571,14.92 19.7072449,14.92 C17.3902041,14.9173333 15.632449,15.9146667 14.4835714,16.9013333 L14.4835714,4.872 C14.687449,4.576 15.1310204,3.98133333 15.795,3.41066667 C16.7179592,2.632 17.9963265,1.91466667 19.7072449,1.91466667 C21.4732653,1.91466667 22.815,2.68533333 23.7627551,3.496 C24.2311224,3.89866667 24.5865306,4.30933333 24.8234694,4.61333333 C24.9088776,4.71733333 24.975,4.81066667 25.0273469,4.88266667 L25.0273469,16.9466667 L25.0273469,16.9466667 Z" id="Shape"></path>
        </g>
    </g>
</svg>
